<svg preserveAspectRatio="xMidYMid meet" width="100%" height="100%" overflow="visible" style="display: block;" viewBox="0 0 254.895 255.716" fill="none" xmlns="http://www.w3.org/2000/svg">
<g id="Group">
<path id="Vector" d="M127.34 2.11102C196.566 2.17135 252.726 58.5023 252.785 127.967C252.808 154.31 244.749 178.722 231.012 198.895C230.268 199.984 229.926 201.317 229.781 202.632C229.633 203.968 229.671 205.454 229.813 206.982C230.097 210.035 230.825 213.52 231.574 216.795C232.338 220.136 233.112 223.212 233.564 225.666C233.79 226.891 233.915 227.853 233.928 228.541C233.929 228.585 233.928 228.628 233.928 228.668C233.916 228.668 233.903 228.669 233.89 228.668C233.229 228.666 232.291 228.565 231.089 228.376C228.685 227.997 225.647 227.334 222.374 226.689C219.163 226.055 215.763 225.447 212.844 225.244C211.385 225.142 209.973 225.136 208.724 225.303C207.512 225.464 206.236 225.816 205.24 226.605C183.845 243.531 156.877 253.632 127.555 253.606C58.3286 253.546 2.1692 197.214 2.10959 127.749C2.05011 58.2839 58.1128 2.05072 127.34 2.11102Z" fill="white" stroke="#231815" stroke-width="4"/>
</g>
</svg>
