<svg preserveAspectRatio="xMidYMid meet" width="100%" height="100%" overflow="visible" style="display: block;" viewBox="0 0 256.652 256.014" fill="none" xmlns="http://www.w3.org/2000/svg">
<g id="Group">
<path id="Vector" d="M128.218 2.10847C197.94 2.16746 254.483 58.5759 254.542 128.114C254.565 154.075 246.701 178.163 233.261 198.176L232.619 199.122C231.869 200.213 231.524 201.548 231.378 202.865C231.229 204.204 231.268 205.692 231.411 207.223C231.697 210.28 232.43 213.769 233.184 217.049C233.953 220.393 234.733 223.472 235.189 225.929C235.416 227.155 235.541 228.118 235.554 228.805C235.555 228.851 235.555 228.895 235.555 228.935C235.537 228.935 235.52 228.936 235.502 228.936C234.834 228.934 233.888 228.833 232.678 228.644C230.257 228.265 227.197 227.6 223.902 226.954C220.668 226.32 217.247 225.711 214.309 225.508C212.841 225.407 211.421 225.401 210.166 225.567C208.948 225.729 207.667 226.08 206.668 226.868C185.123 243.816 157.963 253.93 128.434 253.905C58.7111 253.846 2.16949 197.438 2.10978 127.9C2.05012 58.3625 58.4951 2.04969 128.218 2.10847Z" fill="white" stroke="#231815" stroke-width="4"/>
</g>
</svg>
