<svg preserveAspectRatio="xMidYMid meet" width="100%" height="100%" overflow="visible" style="display: block;" viewBox="0 0 247.738 246.184" fill="none" xmlns="http://www.w3.org/2000/svg">
<g id="Group">
<path id="Vector" d="M123.857 2.01275C191.178 2.01969 245.719 56.2359 245.726 123.104C245.728 148.465 237.877 171.973 224.51 191.408C223.775 192.472 223.439 193.772 223.295 195.047C223.15 196.343 223.186 197.781 223.323 199.256C223.598 202.204 224.305 205.567 225.031 208.722C225.773 211.943 226.522 214.902 226.96 217.264C227.178 218.442 227.297 219.363 227.31 220.018C227.31 220.034 227.31 220.05 227.31 220.065C226.671 220.062 225.767 219.967 224.61 219.788C222.272 219.425 219.319 218.788 216.135 218.168C213.012 217.56 209.703 216.977 206.862 216.783C205.441 216.686 204.065 216.68 202.848 216.842C201.739 216.989 200.569 217.299 199.619 217.974L199.436 218.11C178.623 234.426 152.393 244.174 123.882 244.171C56.5599 244.164 2.01961 189.948 2.0127 123.079C2.00582 56.2107 56.535 2.00581 123.857 2.01275Z" fill="white" stroke="#231815" stroke-width="4"/>
</g>
</svg>
