<svg preserveAspectRatio="xMidYMid meet" width="100%" height="100%" overflow="visible" style="display: block;" viewBox="0 0 278.346 278.346" fill="none" xmlns="http://www.w3.org/2000/svg">
<g id="Group">
<path id="Vector" d="M139.173 2.00008C214.943 2.00008 276.347 63.4028 276.347 139.173C276.347 167.908 267.504 194.545 252.452 216.565C251.661 217.718 251.29 219.138 251.132 220.557C250.971 221.997 251.011 223.602 251.164 225.261C251.47 228.574 252.26 232.36 253.076 235.928C253.907 239.56 254.752 242.919 255.245 245.597C255.491 246.934 255.628 247.992 255.643 248.756C255.645 248.876 255.643 248.981 255.64 249.073C255.572 249.076 255.497 249.077 255.414 249.077C254.677 249.075 253.639 248.965 252.324 248.76C249.692 248.349 246.364 247.628 242.793 246.929C239.284 246.242 235.579 245.584 232.402 245.366C230.814 245.257 229.285 245.253 227.939 245.433C226.629 245.608 225.272 245.986 224.222 246.817C200.791 265.302 171.265 276.347 139.173 276.347C63.4028 276.347 2.00009 214.943 2.00009 139.173C2.00023 63.4029 63.4029 2.00022 139.173 2.00008Z" fill="white" stroke="#231815" stroke-width="4"/>
</g>
</svg>
