<svg width="26" height="23" viewBox="0 0 26 23" fill="none" xmlns="http://www.w3.org/2000/svg">
<rect x="0.5" y="8.5" width="14" height="14" stroke="#231F20"/>
<g clip-path="url(#clip0_36_248)">
<path d="M24.5341 0.0994985C19.282 4.4275 14.728 9.67847 11.1396 15.5823C10.7164 14.9025 10.2757 14.2325 9.81019 13.5705C9.17227 12.6778 8.51066 11.8015 7.69559 11.0389C6.87759 10.2679 5.70492 9.59755 4.58729 10.2821C3.34717 11.1202 4.27015 12.8491 5.52302 12.5265C5.7873 12.7171 6.0421 12.9935 6.26556 13.257C6.73433 13.8158 7.16666 14.4512 7.56727 15.0789C8.39729 16.3897 9.15514 17.7829 9.85029 19.1758C10.0114 19.4791 10.244 19.735 10.5808 19.8793C11.3062 20.1965 12.1512 19.8658 12.4683 19.1404C15.4417 12.3421 19.7446 6.04927 25.1118 0.735594C25.492 0.319671 24.9474 -0.22748 24.5341 0.099134V0.0994985Z" fill="#231F20"/>
</g>
<defs>
<clipPath id="clip0_36_248">
<rect width="21.2401" height="20" fill="white" transform="translate(4)"/>
</clipPath>
</defs>
</svg>
