<svg width="23" height="23" viewBox="0 0 23 23" fill="none" xmlns="http://www.w3.org/2000/svg">
<g clip-path="url(#clip0_23_897)">
<path d="M23 11.5C23 5.15883 17.8412 -2.255e-07 11.5 -5.02681e-07C5.15883 -7.79862e-07 -2.255e-07 5.15883 -5.02681e-07 11.5C-7.79862e-07 17.8412 5.15883 23 11.5 23C17.8412 23 23 17.8412 23 11.5ZM10.8226 15.0524L6.03076 10.2606C5.84389 10.0737 5.75 9.82846 5.75 9.58318C5.75 9.33791 5.84389 9.09264 6.03076 8.90576C6.40541 8.53111 7.01096 8.53111 7.38605 8.90576L11.5 13.0197L15.6139 8.90576C15.9886 8.53111 16.5941 8.53111 16.9688 8.90576C17.3434 9.28041 17.3434 9.88596 16.9688 10.2606L12.177 15.0524C11.8023 15.4271 11.1968 15.4271 10.8217 15.0524L10.8226 15.0524Z" fill="black"/>
</g>
<defs>
<clipPath id="clip0_23_897">
<rect width="23" height="23" fill="white" transform="translate(23) rotate(90)"/>
</clipPath>
</defs>
</svg>
