<svg width="401" height="599" viewBox="0 0 401 599" fill="none" xmlns="http://www.w3.org/2000/svg">
<g clip-path="url(#clip0_315_861)">
<path d="M137.195 519.815C133.779 524.324 130.363 526.511 126.878 526.511C123.872 526.511 121.686 524.871 120.456 521.591C120.046 520.635 119.773 519.405 119.363 518.175C114.17 524.188 108.909 527.262 103.58 527.262C100.71 527.262 98.2505 526.306 96.2008 524.393C94.4244 522.753 93.4678 520.157 93.1945 516.535C92.7846 510.796 94.6977 506.355 99.0704 503.212C105.493 498.703 114.102 496.995 115.81 496.653C116.63 496.448 119.294 496.038 119.294 491.87V481.963C119.294 478.274 118.816 475.677 118.475 474.379C117.45 470.826 111.301 470.416 107.748 474.106C105.766 476.224 104.331 479.025 103.512 482.783C103.102 484.286 102.282 485.653 101.052 486.609C100.095 487.293 99.1388 487.702 98.1822 487.976C96.4058 488.386 95.176 488.386 94.4927 487.976C93.5362 487.566 93.1262 486.883 93.1262 485.653C93.1262 482.646 94.6294 479.504 97.6356 476.292C103.238 470.416 109.592 467.342 116.561 467.342C120.934 467.342 124.282 468.572 126.469 470.895C127.972 472.534 128.655 474.994 128.655 478.137V510.113C128.655 516.125 129.611 519.2 131.388 519.2C132.071 519.2 132.686 518.858 133.711 517.834C137.332 514.212 139.109 516.945 137.264 519.747L137.195 519.815ZM119.226 498.088C118.543 499.318 113.76 500.821 110.412 502.324C107.816 503.554 106.928 504.647 105.22 506.492C103.853 508.268 103.17 510.591 103.17 513.187C103.17 517.424 105.083 519.61 108.773 519.61C111.096 519.61 113.282 518.653 115.332 516.74C117.381 514.827 118.475 512.641 118.885 510.181C119.021 509.635 119.158 505.808 119.158 504.032V498.088H119.226Z" fill="#EADAD3"/>
<path d="M306.64 519.815C303.224 524.324 299.807 526.511 296.323 526.511C293.317 526.511 291.13 524.871 289.9 521.591C289.49 520.635 289.217 519.405 288.807 518.175C283.615 524.188 278.354 527.262 273.024 527.262C270.155 527.262 267.695 526.306 265.645 524.393C263.869 522.753 262.912 520.157 262.639 516.535C262.229 510.796 264.142 506.355 268.515 503.212C274.937 498.703 283.546 496.995 285.254 496.653C286.074 496.448 288.739 496.038 288.739 491.87V481.963C288.739 478.274 288.261 475.677 287.919 474.379C286.894 470.826 280.745 470.416 277.192 474.106C275.211 476.224 273.776 479.025 272.956 482.783C272.546 484.286 271.726 485.653 270.496 486.609C269.54 487.293 268.583 487.702 267.627 487.976C265.85 488.386 264.62 488.386 263.937 487.976C262.981 487.566 262.571 486.883 262.571 485.653C262.571 482.646 264.074 479.504 267.08 476.292C272.683 470.416 279.037 467.342 286.006 467.342C290.379 467.342 293.727 468.572 295.913 470.895C297.416 472.534 298.099 474.994 298.099 478.137V510.113C298.099 516.125 299.056 519.2 300.832 519.2C301.515 519.2 302.13 518.858 303.155 517.834C306.776 514.212 308.553 516.945 306.708 519.747L306.64 519.815ZM288.602 498.088C287.919 499.318 283.136 500.821 279.788 502.324C277.192 503.554 276.304 504.647 274.596 506.492C273.229 508.268 272.546 510.591 272.546 513.187C272.546 517.424 274.459 519.61 278.149 519.61C280.472 519.61 282.658 518.653 284.708 516.74C286.757 514.827 287.851 512.641 288.261 510.181C288.397 509.635 288.534 505.808 288.534 504.032V498.088H288.602Z" fill="#EADAD3"/>
<path d="M218.638 479.841C219.39 481.618 220.141 484.351 220.141 487.289C220.141 492.071 218.092 496.376 214.129 500.065C210.029 503.755 204.358 505.531 197.253 505.531C193.563 505.531 190.83 506.078 188.985 507.308C187.141 508.538 186.252 509.904 185.706 511.544C184.886 514.414 186.799 516.19 191.855 516.736C194.041 517.01 191.513 516.737 201.625 516.873C219.39 517.01 225.471 523.979 226.495 532.793C227.589 542.358 214.949 555.818 196.706 555.818C178.463 555.818 175.799 548.849 174.911 543.793C173.339 534.569 184.818 525.55 186.116 525.755C182.973 525.277 178.805 523.432 176.755 522.271C174.227 520.768 174.227 517.351 175.867 515.028C177.234 513.047 181.06 509.016 183.383 506.966C184.613 505.873 185.842 504.78 187.072 503.823C179.215 499.04 175.252 493.37 175.252 486.947C175.252 481.618 177.575 476.903 182.085 473.077C186.594 469.388 191.992 467.475 198.004 467.475C202.24 467.475 206.271 468.568 209.961 470.618C214.675 472.667 218.023 472.804 224.992 472.121C227.657 471.847 228.887 475.4 225.334 476.357C223.216 476.972 217.067 476.288 218.638 479.773V479.841ZM208.799 526.78C197.731 524.799 192.265 526.78 192.265 526.78C186.662 529.035 183.314 535.526 184.818 542.631C186.252 549.396 197.731 552.812 208.799 547.824C221.781 541.88 216.042 528.078 208.799 526.78ZM206.818 476.835C204.768 473.419 202.035 471.642 198.277 471.642C194.52 471.642 191.445 473.282 189.054 476.425C186.731 479.705 185.637 483.121 185.637 486.605C185.637 490.568 186.594 493.848 188.37 496.786C190.42 500.065 193.426 501.705 197.321 501.705C201.42 501.705 204.563 500.202 206.818 497.196C208.868 494.463 209.824 490.91 209.824 486.469C209.824 483.599 208.868 480.456 206.818 476.835Z" fill="#EADAD3"/>
<path d="M398.741 524.73C396.555 524.594 391.772 524.32 387.604 524.32C383.437 524.32 378.312 524.73 377.492 524.799C375.716 525.004 373.803 525.004 373.666 523.227C373.461 520.904 377.629 520.563 379.679 519.059C381.455 517.761 381.933 515.712 381.933 511.065V488.997C381.933 481.754 380.84 476.63 376.194 474.854C371.548 473.077 365.194 473.76 360.138 478.543C356.858 481.686 356.722 485.307 356.722 490.91C356.722 490.91 356.858 505.804 356.858 508.606C356.858 511.407 356.585 516.19 358.157 518.786C359.728 521.382 364.852 520.631 364.784 523.364C364.784 524.525 363.896 524.935 362.256 524.935C360.548 524.935 355.355 524.32 351.187 524.184C347.02 524.047 342.305 524.457 340.939 524.594C339.572 524.73 338.547 524.594 338.206 523.432C337.796 521.929 339.914 521.041 343.193 519.811C346.473 518.581 346.883 514.072 346.883 510.997V486.127C346.883 478.27 345.858 478.543 342.647 479.5C340.802 480.046 339.982 479.636 339.572 478.748C338.889 477.177 341.417 476.015 344.218 474.854C347.498 473.555 348.523 472.735 350.982 470.822C353.92 468.568 353.374 467.27 355.014 467.27C356.653 467.27 356.927 468.226 356.927 470.139V476.288C360.411 471.779 365.877 467.201 374.076 467.201C384.598 467.201 392.045 472.735 392.045 485.58C392.045 488.723 392.387 506.693 392.455 509.221C392.455 511.68 391.499 518.308 396.282 519.811C399.288 520.768 400.996 521.451 400.996 522.886C400.996 523.91 400.313 524.662 398.81 524.525L398.741 524.73Z" fill="#EADAD3"/>
<path d="M58.144 520.086C52.1998 518.72 51.1066 516.602 47.7587 512.092C41.5412 503.825 33.8205 493.645 33.8205 493.645C33.1373 492.688 31.2925 490.297 34.1622 487.837C34.1622 487.837 48.1687 476.29 48.9886 475.744C52.0632 473.694 58.7589 474.241 59.1689 471.781C59.3739 470.414 58.4856 469.731 57.1192 469.731C56.5042 469.731 50.97 470.209 45.914 470.209C40.8579 470.209 36.0069 469.731 35.7336 469.731C33.6839 469.731 32.7957 470.278 32.864 471.644C33.0006 474.035 40.653 474.309 40.5163 475.539C40.448 476.563 38.8765 477.725 35.7336 480.458C28.2863 486.676 22.752 491.458 18.7892 494.601C18.7892 492.483 18.7892 491.048 18.7892 491.048C18.7892 489.409 18.7892 487.974 18.9258 486.607C18.9258 486.539 18.9258 486.471 18.9258 486.402V473.352L18.3109 429.898C18.3109 427.985 18.0376 427.028 16.3978 427.028C14.758 427.028 15.3046 428.326 12.3667 430.581C9.90699 432.494 8.88213 433.314 5.60255 434.612C2.80125 435.706 0.273252 436.935 0.956496 438.507C1.36644 439.327 2.25466 439.805 4.03109 439.258C7.24234 438.234 8.26721 438.029 8.26721 445.886L8.88213 511.272C8.88213 514.279 8.40386 518.856 5.19261 520.086C1.98136 521.316 -0.205019 522.136 0.204927 523.707C0.546549 524.937 1.57142 525.074 2.9379 524.869C4.30439 524.664 8.95045 524.322 13.1866 524.459C17.4227 524.596 22.547 525.211 24.2551 525.211C25.8949 525.211 26.7148 524.801 26.7831 523.639C26.9198 520.906 21.7271 521.589 20.1557 519.061C18.5842 516.465 18.7892 511.682 18.8575 508.881C18.8575 507.719 18.8575 504.645 18.8575 501.365C18.8575 499.725 19.7457 498.222 21.2488 497.607C22.8203 496.993 24.5967 497.129 25.6216 498.496L39.9014 517.626C41.4729 519.745 38.8765 520.291 36.6902 521.794C36.0752 522.204 35.6653 522.751 35.7336 523.502C35.8703 525.211 37.715 525.279 39.5598 525.074C40.3797 524.937 45.5723 524.596 49.6718 524.596C53.7713 524.596 58.6223 524.869 60.8087 525.005C62.3118 525.142 62.9951 524.391 62.9951 523.366C62.9951 521.999 61.3553 521.043 58.2807 520.291L58.144 520.086Z" fill="#EADAD3"/>
<path d="M36.4852 597.906C36.4852 597.906 36.3485 598.384 36.1436 598.384H27.1931C26.6465 598.384 26.2365 598.179 26.0315 597.769C24.8017 595.924 23.3669 593.738 21.6588 591.278C19.9507 588.819 18.4475 586.769 17.2177 585.266C16.9444 584.924 16.5345 584.787 16.0562 584.787H13.8698C13.8698 584.787 13.3232 584.856 13.1182 584.992C12.9133 585.129 12.8449 585.334 12.8449 585.607V594.558C12.8449 595.651 13.1866 596.403 13.9381 596.812C14.6897 597.222 15.6462 597.427 16.8761 597.427H17.5593C17.5593 597.427 17.9009 597.564 17.9009 597.906C17.9009 598.247 17.7643 598.384 17.5593 598.384H2.86958C2.86958 598.384 2.52795 598.247 2.52795 597.906C2.52795 597.564 2.6646 597.427 2.86958 597.427H3.55282C4.78266 597.427 5.80753 597.222 6.49077 596.812C7.17401 596.403 7.58396 595.651 7.58396 594.558V573.924C7.58396 572.831 7.24234 572.079 6.49077 571.669C5.7392 571.259 4.78266 571.054 3.55282 571.054H2.86958C2.86958 571.054 2.52795 570.918 2.52795 570.576C2.52795 570.234 2.6646 570.098 2.86958 570.098C6.83239 570.098 10.5902 570.029 14.2114 570.029C16.6028 570.029 18.3109 570.029 19.3358 570.029C21.3855 570.029 23.3669 570.371 25.1433 570.986C26.9198 571.601 28.4229 572.421 29.5161 573.514C30.6093 574.607 31.1559 575.905 31.1559 577.34C31.1559 578.98 30.4043 580.346 28.9695 581.439C27.5347 582.533 25.6216 583.353 23.3669 583.899C22.8886 584.036 22.6837 584.172 22.6837 584.446C22.6837 584.582 22.752 584.719 22.8886 584.924C23.7085 585.812 24.9384 587.452 26.6465 589.843C28.4912 592.371 29.8577 594.148 30.8143 595.241C31.2925 595.788 31.7025 596.198 32.0441 596.471C32.3857 596.744 32.9323 597.017 33.5472 597.154C34.1622 597.359 35.0504 597.427 36.0752 597.427C36.2802 597.427 36.4169 597.564 36.4169 597.906H36.4852ZM13.1182 583.489C13.1182 583.489 13.5282 583.694 13.8698 583.694H14.3481C21.6588 583.694 25.3483 581.508 25.3483 577.067C25.3483 575.222 24.5284 573.787 22.9569 572.762C21.3855 571.737 19.3358 571.191 16.8761 571.191C15.6462 571.191 14.6214 571.327 13.9381 571.669C13.2549 572.011 12.9133 572.626 12.9133 573.582V582.874C12.9133 582.874 12.9816 583.353 13.1866 583.489H13.1182Z" fill="#EADAD3"/>
<path d="M58.1442 593.807C58.1442 593.807 58.1442 594.012 58.0075 594.149C57.3243 595.378 56.2311 596.54 54.6596 597.497C53.0882 598.453 51.1068 598.931 48.7154 598.931C46.4607 598.931 44.4793 598.521 42.6345 597.702C40.8581 596.882 39.4233 595.72 38.3984 594.285C37.3736 592.782 36.827 591.142 36.827 589.366C36.827 587.795 37.2369 586.223 38.1251 584.652C39.0133 583.08 40.2432 581.85 41.9513 580.825C43.6594 579.801 45.7091 579.322 48.1005 579.322C50.6285 579.322 52.8149 580.006 54.6596 581.304C56.4361 582.602 57.5976 584.447 58.1442 586.701V586.838C58.1442 587.316 57.8026 587.59 57.1876 587.59H43.0445C42.3612 587.658 42.0196 587.931 42.0196 588.341V589.024C42.0196 591.347 42.7029 593.26 44.1377 594.764C45.5725 596.267 47.4173 597.018 49.7403 597.018C52.7466 597.018 55.2062 595.857 57.051 593.602C57.1876 593.465 57.3243 593.397 57.4609 593.397C57.5976 593.397 57.7342 593.397 57.8709 593.534C58.0759 593.67 58.1442 593.739 58.1442 593.875V593.807ZM44.6159 581.714C43.5911 582.465 42.8395 583.695 42.4296 585.403V585.608C42.4296 585.608 42.4296 585.95 42.6345 586.086C42.8395 586.223 43.0445 586.291 43.3178 586.291H51.8583C52.5416 586.223 52.8149 586.018 52.8149 585.608C52.8149 583.968 52.2683 582.67 51.3117 581.85C50.3552 580.962 49.1937 580.552 47.8272 580.552C46.6657 580.552 45.6408 580.962 44.6159 581.714Z" fill="#EADAD3"/>
<path d="M79.1878 570.372C80.0077 570.85 80.4177 571.397 80.4177 572.011C80.4177 572.558 80.2127 572.968 79.8027 573.241C79.3928 573.583 78.9145 573.72 78.2313 573.72C77.4797 573.72 76.9331 573.583 76.4548 573.378C75.9766 573.173 75.5666 572.763 75.02 572.285C74.6784 571.943 74.4051 571.67 74.1318 571.533C73.8585 571.397 73.5169 571.26 73.1753 571.26C72.6287 571.26 72.2187 571.533 71.9454 572.08C71.6721 572.626 71.4672 573.446 71.3305 574.676C71.1939 575.701 71.1255 577.067 71.1255 578.844C71.1255 579.39 71.4672 579.664 72.1504 579.664H74.8151C74.8151 579.664 75.3617 579.664 75.5666 579.869C75.7716 580.005 75.8399 580.142 75.8399 580.347C75.8399 580.552 75.7716 580.689 75.5666 580.825C75.3617 580.962 75.1567 581.03 74.8151 581.03H72.1504C72.1504 581.03 71.6038 581.099 71.3988 581.235C71.1939 581.372 71.1255 581.577 71.1255 581.85V595.652C71.1255 596.403 71.3988 596.882 71.9454 597.087C72.492 597.291 73.1753 597.428 74.1318 597.428H74.6784C74.6784 597.428 75.02 597.565 75.02 597.906C75.02 598.248 74.8834 598.385 74.6784 598.385H62.8583C62.8583 598.385 62.5167 598.248 62.5167 597.906C62.5167 597.565 62.6533 597.428 62.8583 597.428H63.4049C64.3614 597.428 65.113 597.291 65.5913 597.087C66.1379 596.882 66.4112 596.403 66.4112 595.652V581.85C66.4112 581.85 66.3428 581.372 66.1379 581.235C65.9329 581.099 65.7279 581.03 65.3863 581.03H63.1999C63.1999 581.03 62.6533 581.03 62.4483 580.825C62.2434 580.689 62.175 580.552 62.175 580.347C62.175 580.142 62.2434 580.005 62.4483 579.869C62.6533 579.732 62.8583 579.664 63.1999 579.664H65.4546C66.0695 579.664 66.4112 579.39 66.4795 578.844C66.8211 576.111 67.7093 573.925 69.2808 572.216C70.8522 570.508 73.0386 569.62 75.7716 569.62C77.1381 569.62 78.2313 569.893 79.0512 570.372H79.1878Z" fill="#EADAD3"/>
<path d="M81.9209 598.382C81.9209 598.382 81.511 598.245 81.511 597.904C81.511 597.562 81.6476 597.425 81.9209 597.425H82.4675C83.3557 597.425 84.1073 597.289 84.5856 597.084C85.1322 596.879 85.3371 596.4 85.3371 595.649V574.127C85.3371 573.307 85.0639 572.76 84.5173 572.487C83.9707 572.214 83.2191 572.077 82.0576 572.077C81.716 572.077 81.5793 571.872 81.5793 571.462C81.8526 571.189 82.1259 571.052 82.3992 570.984L85.4055 570.437L88.89 569.754H89.1633C89.1633 569.754 89.6416 569.754 89.7782 569.959C89.9149 570.096 89.9832 570.301 89.9832 570.505V595.581C89.9832 596.332 90.2565 596.81 90.8031 597.015C91.3497 597.22 92.0329 597.357 92.9895 597.357H93.5361C93.5361 597.357 93.8777 597.494 93.8777 597.835C93.8777 598.177 93.741 598.314 93.5361 598.314H81.7843L81.9209 598.382Z" fill="#EADAD3"/>
<path d="M119.294 593.807C119.294 593.807 119.294 594.012 119.158 594.149C118.474 595.378 117.381 596.54 115.81 597.497C114.238 598.453 112.257 598.931 109.866 598.931C107.611 598.931 105.629 598.521 103.785 597.702C102.008 596.882 100.573 595.72 99.5486 594.285C98.5237 592.782 97.9771 591.142 97.9771 589.366C97.9771 587.795 98.3871 586.223 99.2753 584.652C100.163 583.08 101.393 581.85 103.101 580.825C104.81 579.801 106.859 579.322 109.251 579.322C111.779 579.322 113.965 580.006 115.81 581.304C117.586 582.602 118.748 584.447 119.294 586.701V586.838C119.294 587.316 118.953 587.59 118.338 587.59H104.195C103.511 587.658 103.17 587.931 103.17 588.341V589.024C103.17 591.347 103.853 593.26 105.288 594.764C106.723 596.267 108.567 597.018 110.89 597.018C113.897 597.018 116.356 595.857 118.201 593.602C118.338 593.465 118.474 593.397 118.611 593.397C118.748 593.397 118.884 593.397 119.021 593.534C119.226 593.67 119.294 593.739 119.294 593.875V593.807ZM105.766 581.714C104.741 582.465 103.99 583.695 103.58 585.403V585.608C103.58 585.608 103.58 585.95 103.785 586.086C103.99 586.223 104.195 586.291 104.468 586.291H113.008C113.692 586.223 113.965 586.018 113.965 585.608C113.965 583.968 113.418 582.67 112.462 581.85C111.505 580.962 110.344 580.552 108.977 580.552C107.816 580.552 106.791 580.962 105.766 581.714Z" fill="#EADAD3"/>
<path d="M129.816 597.768C128.04 597.016 126.605 595.855 125.512 594.42C124.419 592.985 123.872 591.277 123.872 589.296C123.872 587.724 124.35 586.153 125.239 584.65C126.127 583.146 127.493 581.848 129.27 580.892C131.046 579.935 133.164 579.389 135.624 579.389C137.605 579.389 139.245 579.594 140.612 580.072C141.978 580.55 142.935 581.097 143.55 581.78C144.164 582.463 144.506 583.078 144.506 583.693C144.506 584.308 144.301 584.718 143.823 585.128C143.413 585.538 142.866 585.675 142.251 585.675C141.568 585.675 140.953 585.47 140.475 585.06C139.997 584.65 139.518 584.103 139.04 583.351C138.425 582.463 137.81 581.78 137.195 581.233C136.58 580.687 135.829 580.482 134.941 580.482C133.848 580.482 132.823 580.823 132.003 581.575C131.115 582.258 130.431 583.283 129.953 584.581C129.475 585.879 129.201 587.383 129.201 589.091C129.201 590.935 129.543 592.507 130.295 593.668C130.978 594.898 131.934 595.718 133.028 596.265C134.121 596.811 135.282 597.085 136.512 597.085C139.382 597.085 141.705 596.06 143.481 593.942C143.618 593.805 143.823 593.737 143.96 593.737C144.028 593.737 144.164 593.737 144.301 593.805C144.506 593.942 144.643 594.01 144.643 594.215C144.643 594.352 144.643 594.42 144.574 594.488C143.755 595.787 142.525 596.811 141.022 597.631C139.45 598.451 137.674 598.861 135.624 598.861C133.574 598.861 131.729 598.451 130.021 597.7L129.816 597.768Z" fill="#EADAD3"/>
<path d="M152.978 597.635C151.953 596.747 151.407 595.449 151.407 593.741V581.921C151.407 581.921 151.339 581.442 151.134 581.306C150.929 581.169 150.724 581.101 150.382 581.101H148.332C148.332 581.101 147.786 581.101 147.581 580.896C147.376 580.759 147.307 580.622 147.307 580.418C147.307 580.008 147.581 579.666 148.127 579.529C149.835 579.119 151.202 578.368 152.363 577.343C153.457 576.318 154.345 574.747 154.891 572.629C155.028 572.15 155.233 571.877 155.575 571.877C155.711 571.877 155.848 571.945 155.916 572.082C155.985 572.219 156.053 572.424 156.053 572.697V578.914C156.053 578.914 156.121 579.393 156.326 579.529C156.531 579.666 156.736 579.734 157.078 579.734H161.109C161.109 579.734 161.656 579.734 161.86 579.939C162.065 580.144 162.134 580.213 162.134 580.418C162.134 580.622 162.065 580.759 161.86 580.896C161.656 581.032 161.451 581.101 161.109 581.101H157.009C157.009 581.101 156.463 581.169 156.258 581.306C156.053 581.442 155.985 581.647 155.985 581.921V590.256C155.985 592.169 155.985 593.194 155.985 593.536C156.121 595.791 157.146 596.952 159.128 596.952C159.811 596.952 160.426 596.884 160.904 596.679C161.382 596.474 161.86 596.132 162.407 595.654C162.544 595.517 162.68 595.449 162.817 595.449C162.954 595.449 163.09 595.449 163.295 595.654C163.432 595.791 163.5 595.859 163.5 595.996C163.5 596.132 163.5 596.2 163.432 596.2C161.86 598.114 159.879 599.07 157.351 599.07C155.37 599.07 153.867 598.66 152.842 597.704L152.978 597.635Z" fill="#EADAD3"/>
<path d="M168.625 598.521C168.625 598.521 168.146 598.385 168.078 598.043L166.506 592.85V592.646C166.506 592.646 166.575 592.304 166.848 592.236C166.848 592.236 166.985 592.236 167.121 592.236C167.326 592.236 167.531 592.304 167.668 592.509C170.469 595.993 173.817 597.702 177.78 597.702C179.215 597.702 180.308 597.428 181.06 596.813C181.879 596.198 182.221 595.447 182.221 594.49C182.221 593.944 182.016 593.397 181.606 592.919C181.196 592.441 180.581 592.031 179.761 591.757C178.805 591.416 177.165 590.937 174.979 590.391C173.749 590.118 172.656 589.844 171.767 589.571C170.401 589.024 169.308 588.409 168.556 587.59C167.805 586.77 167.395 585.813 167.395 584.788C167.395 584.037 167.668 583.217 168.146 582.329C168.625 581.509 169.444 580.757 170.606 580.21C171.699 579.664 173.134 579.322 174.774 579.322C175.594 579.322 176.414 579.322 177.097 579.527C177.78 579.664 178.532 579.801 179.42 580.005C180.103 580.21 180.513 580.279 180.718 580.279C181.333 580.279 181.948 580.074 182.494 579.732C182.768 579.596 182.973 579.527 183.109 579.527C183.314 579.527 183.451 579.664 183.588 579.937L185.227 584.515C185.227 584.515 185.227 584.652 185.227 584.788C185.227 584.925 185.091 585.062 184.817 585.198C184.817 585.198 184.681 585.198 184.544 585.198C184.134 584.993 183.861 584.788 183.724 584.652C182.563 583.49 181.196 582.465 179.556 581.714C177.917 580.962 176.277 580.552 174.705 580.552C173.271 580.552 172.246 580.825 171.562 581.44C170.879 582.055 170.538 582.67 170.538 583.285C170.538 583.832 170.743 584.242 171.221 584.652C171.631 585.062 172.382 585.403 173.339 585.813C173.886 586.018 175.115 586.36 177.097 586.906C179.215 587.453 180.786 587.863 181.743 588.273C183.109 588.819 184.202 589.503 184.954 590.322C185.706 591.142 186.116 592.167 186.116 593.26C186.116 595.037 185.364 596.403 183.793 597.428C182.221 598.453 180.171 599 177.643 599C176.823 599 176.004 599 175.252 598.795C174.5 598.658 173.544 598.453 172.451 598.18C172.246 598.18 171.972 598.043 171.562 597.975C171.153 597.906 170.948 597.838 170.811 597.838C170.333 597.838 169.854 597.975 169.376 598.248C169.171 598.385 168.966 598.453 168.693 598.453L168.625 598.521Z" fill="#EADAD3"/>
<path d="M206.545 597.635C205.52 596.747 204.973 595.449 204.973 593.741V581.921C204.973 581.921 204.905 581.442 204.7 581.306C204.495 581.169 204.29 581.101 203.948 581.101H201.899C201.899 581.101 201.352 581.101 201.147 580.896C200.942 580.759 200.874 580.622 200.874 580.418C200.874 580.008 201.147 579.666 201.694 579.529C203.402 579.119 204.768 578.368 205.93 577.343C207.023 576.318 207.911 574.747 208.458 572.629C208.594 572.15 208.799 571.877 209.141 571.877C209.278 571.877 209.414 571.945 209.483 572.082C209.551 572.219 209.619 572.424 209.619 572.697V578.914C209.619 578.914 209.688 579.393 209.893 579.529C210.098 579.666 210.302 579.734 210.644 579.734H214.675C214.675 579.734 215.222 579.734 215.427 579.939C215.632 580.144 215.7 580.213 215.7 580.418C215.7 580.622 215.632 580.759 215.427 580.896C215.222 581.032 215.017 581.101 214.675 581.101H210.576C210.576 581.101 210.029 581.169 209.824 581.306C209.619 581.442 209.551 581.647 209.551 581.921V590.256C209.551 592.169 209.551 593.194 209.551 593.536C209.688 595.791 210.712 596.952 212.694 596.952C213.377 596.952 213.992 596.884 214.47 596.679C214.949 596.474 215.427 596.132 215.973 595.654C216.11 595.517 216.247 595.449 216.383 595.449C216.52 595.449 216.657 595.449 216.862 595.654C216.998 595.791 217.067 595.859 217.067 595.996C217.067 596.132 217.067 596.2 216.998 596.2C215.427 598.114 213.445 599.07 210.917 599.07C208.936 599.07 207.433 598.66 206.408 597.704L206.545 597.635Z" fill="#EADAD3"/>
<path d="M246.105 597.5C246.105 597.5 246.446 597.636 246.446 597.978C246.446 598.32 246.31 598.456 246.105 598.456H234.626C234.626 598.456 234.216 598.32 234.216 597.978C234.216 597.636 234.353 597.5 234.626 597.5H235.173C236.061 597.5 236.744 597.363 237.222 597.158C237.701 596.953 237.974 596.475 237.974 595.723V589.164C237.974 587.866 237.974 586.773 237.906 585.816C237.769 584.45 237.427 583.288 236.812 582.537C236.198 581.785 235.173 581.307 233.601 581.307C232.576 581.307 231.551 581.58 230.595 582.058C229.638 582.537 228.75 583.288 227.999 584.176C227.725 584.518 227.589 584.791 227.589 585.201V595.792C227.589 596.543 227.862 597.021 228.34 597.226C228.818 597.431 229.57 597.568 230.458 597.568H231.005C231.005 597.568 231.278 597.568 231.278 597.705C231.278 597.773 231.346 597.91 231.346 598.115C231.346 598.456 231.21 598.593 230.937 598.593H219.458C219.458 598.593 219.116 598.456 219.116 598.115C219.116 597.773 219.253 597.636 219.458 597.636H220.005C220.893 597.636 221.644 597.5 222.123 597.295C222.601 597.09 222.874 596.611 222.874 595.86V574.338C222.806 573.518 222.533 573.04 222.054 572.766C221.576 572.561 220.756 572.356 219.595 572.288C219.595 572.288 219.458 572.22 219.39 572.083C219.321 571.946 219.253 571.81 219.253 571.741C219.253 571.536 219.321 571.468 219.526 571.4C220.21 571.263 221.234 571.058 222.601 570.785C223.967 570.511 225.334 570.307 226.632 570.102H226.905C226.905 570.102 227.384 570.102 227.52 570.307C227.657 570.512 227.725 570.648 227.725 570.853V581.58C227.725 582.058 227.862 582.263 228.135 582.263C228.34 582.263 228.545 582.127 228.819 581.922C230.595 580.35 232.645 579.599 234.968 579.599C237.427 579.599 239.34 580.145 240.57 581.307C241.8 582.468 242.483 583.835 242.552 585.475C242.552 585.953 242.552 586.978 242.552 588.549V595.928C242.552 596.68 242.825 597.158 243.372 597.363C243.85 597.568 244.533 597.705 245.421 597.705H245.968L246.105 597.5Z" fill="#EADAD3"/>
<path d="M270.086 593.807C270.086 593.807 270.086 594.012 269.95 594.149C269.266 595.378 268.173 596.54 266.602 597.497C265.03 598.453 263.049 598.931 260.658 598.931C258.403 598.931 256.421 598.521 254.577 597.702C252.8 596.882 251.365 595.72 250.341 594.285C249.316 592.782 248.769 591.142 248.769 589.366C248.769 587.795 249.179 586.223 250.067 584.652C250.956 583.08 252.185 581.85 253.893 580.825C255.602 579.801 257.651 579.322 260.043 579.322C262.571 579.322 264.757 580.006 266.602 581.304C268.378 582.602 269.54 584.447 270.086 586.701V586.838C270.086 587.316 269.745 587.59 269.13 587.59H254.987C254.303 587.658 253.962 587.931 253.962 588.341V589.024C253.962 591.347 254.645 593.26 256.08 594.764C257.515 596.267 259.359 597.018 261.682 597.018C264.689 597.018 267.148 595.857 268.993 593.602C269.13 593.465 269.266 593.397 269.403 593.397C269.54 593.397 269.676 593.397 269.813 593.534C270.018 593.67 270.086 593.739 270.086 593.875V593.807ZM256.626 581.714C255.602 582.465 254.85 583.695 254.44 585.403V585.608C254.44 585.608 254.44 585.95 254.645 586.086C254.85 586.223 255.055 586.291 255.328 586.291H263.869C264.552 586.223 264.825 586.018 264.825 585.608C264.825 583.968 264.279 582.67 263.322 581.85C262.366 580.962 261.204 580.552 259.838 580.552C258.676 580.552 257.651 580.962 256.626 581.714Z" fill="#EADAD3"/>
<path d="M287.236 598.382C287.236 598.382 286.826 598.245 286.826 597.904C286.826 597.562 286.963 597.425 287.236 597.425H287.782C288.671 597.425 289.422 597.289 289.901 597.084C290.447 596.879 290.652 596.4 290.652 595.649V574.127C290.652 573.307 290.379 572.76 289.832 572.487C289.286 572.214 288.534 572.077 287.373 572.077C287.031 572.077 286.894 571.872 286.894 571.462C287.168 571.189 287.441 571.052 287.714 570.984L290.72 570.437L294.205 569.754H294.478C294.478 569.754 294.956 569.754 295.093 569.959C295.23 570.096 295.298 570.301 295.298 570.505V595.581C295.298 596.332 295.571 596.81 296.118 597.015C296.665 597.22 297.348 597.357 298.304 597.357H298.851C298.851 597.357 299.193 597.494 299.193 597.835C299.193 598.177 299.056 598.314 298.851 598.314H287.099L287.236 598.382Z" fill="#EADAD3"/>
<path d="M308.758 597.563C306.982 596.606 305.615 595.377 304.659 593.873C303.702 592.37 303.224 590.799 303.224 589.159C303.224 587.519 303.702 585.879 304.659 584.376C305.615 582.873 306.982 581.643 308.69 580.755C310.466 579.867 312.516 579.389 314.839 579.389C317.162 579.389 319.212 579.867 320.988 580.755C322.765 581.643 324.131 582.873 325.019 584.376C325.907 585.879 326.454 587.451 326.454 589.159C326.454 590.867 325.976 592.37 325.019 593.873C324.063 595.377 322.696 596.606 320.92 597.563C319.143 598.519 317.162 598.998 314.839 598.998C312.516 598.998 310.534 598.519 308.758 597.563ZM319.622 595.308C320.783 593.668 321.33 591.619 321.33 589.159C321.33 586.699 320.783 584.581 319.622 582.942C318.46 581.302 316.889 580.482 314.839 580.482C312.789 580.482 311.218 581.302 310.056 582.942C308.895 584.581 308.348 586.631 308.348 589.159C308.348 591.687 308.895 593.6 310.056 595.308C311.218 597.016 312.789 597.836 314.771 597.836C316.752 597.836 318.392 597.016 319.485 595.308H319.622Z" fill="#EADAD3"/>
<path d="M336.566 597.768C334.79 597.016 333.355 595.855 332.262 594.42C331.168 592.985 330.622 591.277 330.622 589.296C330.622 587.724 331.1 586.153 331.988 584.65C332.877 583.146 334.243 581.848 336.019 580.892C337.796 579.935 339.914 579.389 342.374 579.389C344.355 579.389 345.995 579.594 347.361 580.072C348.728 580.55 349.684 581.097 350.299 581.78C350.914 582.463 351.256 583.078 351.256 583.693C351.256 584.308 351.051 584.718 350.573 585.128C350.163 585.538 349.616 585.675 349.001 585.675C348.318 585.675 347.703 585.47 347.225 585.06C346.746 584.65 346.268 584.103 345.79 583.351C345.175 582.463 344.56 581.78 343.945 581.233C343.33 580.687 342.579 580.482 341.69 580.482C340.597 580.482 339.572 580.823 338.752 581.575C337.864 582.258 337.181 583.283 336.703 584.581C336.224 585.879 335.951 587.383 335.951 589.091C335.951 590.935 336.293 592.507 337.044 593.668C337.728 594.898 338.684 595.718 339.777 596.265C340.871 596.811 342.032 597.085 343.262 597.085C346.132 597.085 348.455 596.06 350.231 593.942C350.368 593.805 350.573 593.737 350.709 593.737C350.778 593.737 350.914 593.737 351.051 593.805C351.256 593.942 351.392 594.01 351.392 594.215C351.392 594.352 351.392 594.42 351.324 594.488C350.504 595.787 349.274 596.811 347.771 597.631C346.2 598.451 344.423 598.861 342.374 598.861C340.324 598.861 338.479 598.451 336.771 597.7L336.566 597.768Z" fill="#EADAD3"/>
<path d="M379.815 595.171C379.815 595.171 379.952 595.307 379.952 595.376V595.581C379.474 596.605 378.722 597.425 377.766 597.972C376.741 598.519 375.784 598.86 374.691 598.86C372.915 598.86 371.685 598.245 370.933 597.015C370.728 596.674 370.523 596.537 370.318 596.537C370.182 596.537 369.977 596.605 369.703 596.742C368.542 597.494 367.312 597.972 366.014 598.382C364.647 598.724 363.349 598.929 362.051 598.929C360.138 598.929 358.635 598.587 357.473 597.835C356.312 597.084 355.834 596.127 355.834 594.829C355.834 593.804 356.107 592.984 356.722 592.233C357.337 591.481 358.225 590.866 359.455 590.251C360.206 589.91 361.026 589.636 361.914 589.431C362.871 589.226 364.237 588.953 366.014 588.612C367.449 588.338 368.542 588.133 369.293 587.997C369.84 587.86 370.113 587.587 370.113 587.04V586.084C370.113 584.717 370.113 583.692 369.908 583.077C369.772 582.462 369.498 581.916 369.089 581.506C368.405 580.891 367.449 580.549 366.151 580.549C365.194 580.549 364.374 580.754 363.759 581.233C363.144 581.642 362.666 582.462 362.256 583.624C361.983 584.375 361.641 584.99 361.095 585.4C360.616 585.81 360.001 586.015 359.318 586.015C358.635 586.015 358.088 585.81 357.542 585.469C356.995 585.127 356.722 584.649 356.722 584.102C356.722 583.624 356.927 583.009 357.405 582.326C357.883 581.642 358.772 580.959 360.206 580.344C361.641 579.729 363.554 579.456 366.082 579.456C367.79 579.456 369.293 579.661 370.592 580.071C371.89 580.481 372.846 580.959 373.53 581.642C374.076 582.189 374.418 582.736 374.623 583.351C374.828 583.965 374.896 584.649 374.896 585.537C374.896 587.177 374.896 588.475 374.896 589.431V594.077C374.896 595.854 375.511 596.742 376.741 596.742C377.697 596.742 378.449 596.332 379.132 595.444C379.201 595.307 379.337 595.239 379.474 595.239C379.542 595.239 379.679 595.239 379.747 595.307L379.815 595.171ZM367.244 596.605C368.132 596.332 368.952 595.991 369.703 595.444C370.045 595.171 370.25 594.829 370.25 594.419C370.25 594.282 370.25 594.078 370.25 593.804V590.046C370.25 590.046 370.25 589.5 369.977 589.363C369.772 589.226 369.498 589.226 369.157 589.295C366.356 589.91 364.306 590.593 363.008 591.413C361.641 592.233 361.026 593.258 361.026 594.487C361.026 595.239 361.368 595.786 361.983 596.264C362.598 596.742 363.554 596.947 364.784 596.947C365.604 596.947 366.424 596.81 367.312 596.537L367.244 596.605Z" fill="#EADAD3"/>
<path d="M382.617 598.382C382.617 598.382 382.207 598.245 382.207 597.904C382.207 597.562 382.343 597.425 382.617 597.425H383.163C384.052 597.425 384.803 597.289 385.281 597.084C385.828 596.879 386.033 596.4 386.033 595.649V574.127C386.033 573.307 385.76 572.76 385.213 572.487C384.666 572.214 383.915 572.077 382.753 572.077C382.412 572.077 382.275 571.872 382.275 571.462C382.548 571.189 382.822 571.052 383.095 570.984L386.101 570.437L389.586 569.754H389.859C389.859 569.754 390.337 569.754 390.474 569.959C390.611 570.096 390.679 570.301 390.679 570.505V595.581C390.679 596.332 390.952 596.81 391.499 597.015C392.045 597.22 392.729 597.357 393.685 597.357H394.232C394.232 597.357 394.573 597.494 394.573 597.835C394.573 598.177 394.437 598.314 394.232 598.314H382.48L382.617 598.382Z" fill="#EADAD3"/>
<path d="M84.7904 209.617H157.898C165.14 209.617 173.134 211.667 179.761 215.493L381.045 331.713C389.449 336.564 394.642 345.583 394.642 355.217V388.49L84.7904 209.617Z" fill="#EADAD3"/>
<path d="M84.7904 179.01H157.898C165.14 179.01 173.134 176.96 179.761 173.134L381.045 56.9142C389.449 52.0632 394.642 43.0444 394.642 33.4106V0L84.7904 179.01Z" fill="#EADAD3"/>
<path d="M50.9015 0H6.21735V178.463H50.9015V0Z" fill="#EADAD3"/>
<path d="M50.9015 210.098H6.21735V388.561H50.9015V210.098Z" fill="#EADAD3"/>
</g>
<defs>
<clipPath id="clip0_315_861">
<rect width="400.996" height="599" fill="white"/>
</clipPath>
</defs>
</svg>
